<svg width="328" height="60" viewBox="0 0 328 60" fill="none" xmlns="http://www.w3.org/2000/svg">
<path d="M83.4375 31.7305C84.0625 31.7956 84.6484 31.8411 85.1953 31.8672C85.7552 31.8932 86.25 31.9062 86.6797 31.9062C87.0443 31.9062 87.4609 31.8997 87.9297 31.8867C88.3984 31.8607 88.9062 31.8216 89.4531 31.7695C90.7031 31.0143 91.6211 30.1419 92.207 29.1523C92.793 28.1497 93.0859 26.9583 93.0859 25.5781C93.0859 23.7682 92.5 22.3164 91.3281 21.2227C90.1562 20.1289 88.5807 19.582 86.6016 19.582C86.0677 19.582 85.5469 19.6081 85.0391 19.6602C84.5312 19.6992 84.0299 19.7643 83.5352 19.8555C83.4961 21.4701 83.4701 23.1302 83.457 24.8359C83.444 26.5417 83.4375 28.8398 83.4375 31.7305ZM76.4844 44.2305C76.5755 44.2435 76.6602 44.2565 76.7383 44.2695C76.8294 44.2695 76.9596 44.2695 77.1289 44.2695C78.8607 44.2695 79.7396 41.8346 79.7656 36.9648C79.7786 35.7409 79.7917 34.7839 79.8047 34.0938L79.8828 28.7617C79.8958 27.6159 79.9023 26.5026 79.9023 25.4219C79.9154 24.3411 79.9219 23.1693 79.9219 21.9062C79.9219 20.7865 79.7135 20.0117 79.2969 19.582C78.8802 19.1523 78.138 18.9375 77.0703 18.9375H76.9141V17.5703C77.7865 17.6354 78.6458 17.681 79.4922 17.707C80.3516 17.7331 81.1849 17.7461 81.9922 17.7461C82.8646 17.7461 83.9453 17.7201 85.2344 17.668C86.5365 17.6029 87.4023 17.5703 87.832 17.5703C90.5013 17.5703 92.6888 18.2734 94.3945 19.6797C96.1003 21.0859 96.9531 22.8503 96.9531 24.9727C96.9531 26.5482 96.5234 27.9544 95.6641 29.1914C94.8177 30.4154 93.5417 31.4635 91.8359 32.3359L95.4883 37.8633C95.6185 38.0716 95.8138 38.3711 96.0742 38.7617C98.6003 42.6159 100.671 44.543 102.285 44.543H102.48V45.6562C102.298 45.6693 102.025 45.6953 101.66 45.7344C100.814 45.8125 100.195 45.8516 99.8047 45.8516C98.4245 45.8516 97.3307 45.6693 96.5234 45.3047C95.7292 44.9271 94.9414 44.2044 94.1602 43.1367C94.0299 42.9674 93.3073 41.8086 91.9922 39.6602C90.6901 37.5117 89.375 35.487 88.0469 33.5859C87.5521 33.638 87.0247 33.6771 86.4648 33.7031C85.9049 33.7292 85.2865 33.7422 84.6094 33.7422H83.4375V39.7383C83.4375 41.6914 83.6393 42.9284 84.043 43.4492C84.4466 43.957 85.2474 44.2109 86.4453 44.2109C86.4844 44.2109 86.5365 44.2044 86.6016 44.1914C86.6667 44.1784 86.7188 44.1719 86.7578 44.1719C86.8099 44.1719 86.849 44.1784 86.875 44.1914C86.9141 44.2044 86.9401 44.2109 86.9531 44.2109V45.5C86.0286 45.4479 85.1107 45.4089 84.1992 45.3828C83.2878 45.3568 82.3828 45.3438 81.4844 45.3438C81.0026 45.3438 80.3255 45.3568 79.4531 45.3828C78.5807 45.4089 77.5911 45.4479 76.4844 45.5V44.2305ZM105.039 17.6289C107.318 17.707 109.355 17.7656 111.152 17.8047C112.949 17.8438 114.499 17.8633 115.801 17.8633C117.246 17.8633 118.704 17.8438 120.176 17.8047C121.66 17.7656 123.164 17.707 124.688 17.6289C124.701 18.6055 124.74 19.6081 124.805 20.6367C124.87 21.6523 124.948 22.6745 125.039 23.7031L123.73 23.8203C123.626 22.2578 123.145 21.2031 122.285 20.6562C121.426 20.0964 119.57 19.8164 116.719 19.8164C115.99 19.8164 114.655 19.8359 112.715 19.875C112.324 19.888 112.038 19.8945 111.855 19.8945C111.829 21.457 111.79 23.3711 111.738 25.6367C111.686 27.9023 111.654 29.3737 111.641 30.0508H112.246C113.014 30.0508 113.971 30.0638 115.117 30.0898C116.276 30.1029 117.051 30.1094 117.441 30.1094C119.329 30.1094 120.573 29.9336 121.172 29.582C121.784 29.2305 122.116 28.5794 122.168 27.6289L123.398 27.7461C123.307 28.5534 123.236 29.3021 123.184 29.9922C123.145 30.6823 123.125 31.3203 123.125 31.9062C123.125 32.2448 123.158 32.974 123.223 34.0938C123.249 34.4974 123.268 34.8034 123.281 35.0117L122.012 35.0508V34.8945C122.012 33.7878 121.686 33.0391 121.035 32.6484C120.397 32.2578 118.893 32.0625 116.523 32.0625H113.047H111.641C111.641 32.7005 111.634 33.5859 111.621 34.7188C111.608 35.8385 111.602 36.6458 111.602 37.1406C111.602 38 111.608 38.8984 111.621 39.8359C111.634 40.7604 111.66 41.8477 111.699 43.0977C112.35 43.1758 113.086 43.2344 113.906 43.2734C114.74 43.3125 115.651 43.332 116.641 43.332C119.909 43.332 122.057 43.0195 123.086 42.3945C124.128 41.7565 124.954 40.5391 125.566 38.7422L126.973 39.2109C126.582 40.2917 126.237 41.3529 125.938 42.3945C125.638 43.4362 125.378 44.4714 125.156 45.5C123.112 45.4219 121.211 45.3633 119.453 45.3242C117.695 45.2852 116.107 45.2656 114.688 45.2656C112.747 45.2656 109.622 45.3372 105.312 45.4805L104.609 45.5V44.2305C104.701 44.2435 104.785 44.2565 104.863 44.2695C104.954 44.2695 105.085 44.2695 105.254 44.2695C106.986 44.2695 107.865 41.8346 107.891 36.9648C107.904 35.7409 107.917 34.7839 107.93 34.0938L108.008 28.7617C108.021 27.6159 108.027 26.5026 108.027 25.4219C108.04 24.3411 108.047 23.1693 108.047 21.9062C108.047 20.7865 107.839 20.0117 107.422 19.582C107.005 19.1523 106.263 18.9375 105.195 18.9375H105.039V17.6289ZM142.109 21.3008L137.637 32.9805C137.884 32.9805 138.242 32.987 138.711 33C140.182 33.0391 141.185 33.0586 141.719 33.0586C142.37 33.0586 143.548 33.0391 145.254 33C145.632 32.987 145.918 32.9805 146.113 32.9805L142.109 21.3008ZM141.23 17.6289H144.59C146.283 22.7982 147.884 27.5182 149.395 31.7891C150.918 36.0599 152.116 39.2695 152.988 41.418C153.509 42.6549 153.958 43.4167 154.336 43.7031C154.714 43.9896 155.254 44.1328 155.957 44.1328H156.348V45.5C155.332 45.4479 154.401 45.4089 153.555 45.3828C152.721 45.3568 152.018 45.3438 151.445 45.3438C150.716 45.3438 149.915 45.3568 149.043 45.3828C148.171 45.4089 147.246 45.4479 146.27 45.5V44.1328H146.641C147.565 44.1328 148.197 44.0286 148.535 43.8203C148.874 43.599 149.043 43.2018 149.043 42.6289C149.043 42.4206 149.017 42.1927 148.965 41.9453C148.913 41.6849 148.828 41.3789 148.711 41.0273L146.797 35.0508C146.302 35.0508 145.625 35.0443 144.766 35.0312C143.203 34.9922 142.201 34.9727 141.758 34.9727C140.872 34.9727 140.033 34.9792 139.238 34.9922C138.457 34.9922 137.643 35.0052 136.797 35.0312C135.872 37.362 135.241 39.0612 134.902 40.1289C134.564 41.1966 134.395 41.9583 134.395 42.4141C134.395 43.0521 134.564 43.5013 134.902 43.7617C135.241 44.0091 135.846 44.1328 136.719 44.1328H137.246V45.5C136.296 45.4479 135.404 45.4089 134.57 45.3828C133.75 45.3568 133.014 45.3438 132.363 45.3438C131.842 45.3438 131.191 45.3568 130.41 45.3828C129.629 45.4089 128.783 45.4479 127.871 45.5V44.1523C128.796 44.1263 129.525 43.944 130.059 43.6055C130.605 43.2539 131.081 42.6745 131.484 41.8672C132.214 40.3438 133.503 37.2969 135.352 32.7266C137.214 28.1432 139.173 23.1107 141.23 17.6289ZM159.297 17.5703C160.69 17.6484 161.745 17.707 162.461 17.7461C163.19 17.7721 163.776 17.7852 164.219 17.7852C165.065 17.7852 165.892 17.7721 166.699 17.7461C167.52 17.707 168.333 17.6549 169.141 17.5898V18.9375H168.535C167.507 18.9375 166.81 19.2956 166.445 20.0117C166.081 20.7148 165.898 22.3424 165.898 24.8945V28.7812L165.957 43.0977C166.686 43.1367 167.376 43.1693 168.027 43.1953C168.691 43.2083 169.316 43.2148 169.902 43.2148C173.392 43.2148 175.638 42.8958 176.641 42.2578C177.656 41.6068 178.464 40.3568 179.062 38.5078L180.469 38.9375C180.065 40.0573 179.707 41.1576 179.395 42.2383C179.082 43.319 178.809 44.4062 178.574 45.5C176.413 45.4349 174.421 45.3893 172.598 45.3633C170.788 45.3242 169.089 45.3047 167.5 45.3047C166.38 45.3047 165.13 45.3242 163.75 45.3633C162.37 45.3893 160.742 45.4349 158.867 45.5V44.2305C158.958 44.2435 159.043 44.2565 159.121 44.2695C159.212 44.2695 159.342 44.2695 159.512 44.2695C161.27 44.2565 162.155 41.75 162.168 36.75C162.168 35.6172 162.174 34.7318 162.188 34.0938L162.227 28.7812C162.227 28.2083 162.233 27.4727 162.246 26.5742C162.259 25.6758 162.266 25.0508 162.266 24.6992C162.266 22.3034 162.07 20.7474 161.68 20.0312C161.302 19.3021 160.56 18.9375 159.453 18.9375H159.297V17.5703Z" fill="#BB7944"/>
<path d="M182.188 17.6289C184.466 17.707 186.504 17.7656 188.301 17.8047C190.098 17.8438 191.647 17.8633 192.949 17.8633C194.395 17.8633 195.853 17.8438 197.324 17.8047C198.809 17.7656 200.312 17.707 201.836 17.6289C201.849 18.6055 201.888 19.6081 201.953 20.6367C202.018 21.6523 202.096 22.6745 202.188 23.7031L200.879 23.8203C200.775 22.2578 200.293 21.2031 199.434 20.6562C198.574 20.0964 196.719 19.8164 193.867 19.8164C193.138 19.8164 191.803 19.8359 189.863 19.875C189.473 19.888 189.186 19.8945 189.004 19.8945C188.978 21.457 188.939 23.3711 188.887 25.6367C188.835 27.9023 188.802 29.3737 188.789 30.0508H189.395C190.163 30.0508 191.12 30.0638 192.266 30.0898C193.424 30.1029 194.199 30.1094 194.59 30.1094C196.478 30.1094 197.721 29.9336 198.32 29.582C198.932 29.2305 199.264 28.5794 199.316 27.6289L200.547 27.7461C200.456 28.5534 200.384 29.3021 200.332 29.9922C200.293 30.6823 200.273 31.3203 200.273 31.9062C200.273 32.2448 200.306 32.974 200.371 34.0938C200.397 34.4974 200.417 34.8034 200.43 35.0117L199.16 35.0508V34.8945C199.16 33.7878 198.835 33.0391 198.184 32.6484C197.546 32.2578 196.042 32.0625 193.672 32.0625H190.195H188.789C188.789 32.7005 188.783 33.5859 188.77 34.7188C188.757 35.8385 188.75 36.6458 188.75 37.1406C188.75 38 188.757 38.8984 188.77 39.8359C188.783 40.7604 188.809 41.8477 188.848 43.0977C189.499 43.1758 190.234 43.2344 191.055 43.2734C191.888 43.3125 192.799 43.332 193.789 43.332C197.057 43.332 199.206 43.0195 200.234 42.3945C201.276 41.7565 202.103 40.5391 202.715 38.7422L204.121 39.2109C203.73 40.2917 203.385 41.3529 203.086 42.3945C202.786 43.4362 202.526 44.4714 202.305 45.5C200.26 45.4219 198.359 45.3633 196.602 45.3242C194.844 45.2852 193.255 45.2656 191.836 45.2656C189.896 45.2656 186.771 45.3372 182.461 45.4805L181.758 45.5V44.2305C181.849 44.2435 181.934 44.2565 182.012 44.2695C182.103 44.2695 182.233 44.2695 182.402 44.2695C184.134 44.2695 185.013 41.8346 185.039 36.9648C185.052 35.7409 185.065 34.7839 185.078 34.0938L185.156 28.7617C185.169 27.6159 185.176 26.5026 185.176 25.4219C185.189 24.3411 185.195 23.1693 185.195 21.9062C185.195 20.7865 184.987 20.0117 184.57 19.582C184.154 19.1523 183.411 18.9375 182.344 18.9375H182.188V17.6289ZM223.984 18.4688C223.984 19.4323 224.036 20.3828 224.141 21.3203C224.258 22.2578 224.434 23.1823 224.668 24.0938L223.145 24.3867C222.923 22.7721 222.298 21.5742 221.27 20.793C220.254 20.0117 218.815 19.6211 216.953 19.6211C215.234 19.6211 213.835 20.0378 212.754 20.8711C211.686 21.7044 211.152 22.7786 211.152 24.0938C211.152 26.2552 213.444 28.1042 218.027 29.6406C218.639 29.8359 219.108 29.9922 219.434 30.1094C221.53 30.8385 223.073 31.776 224.062 32.9219C225.052 34.0547 225.547 35.4609 225.547 37.1406C225.547 39.7318 224.564 41.8346 222.598 43.4492C220.632 45.0508 218.027 45.8516 214.785 45.8516C213.548 45.8516 212.337 45.7474 211.152 45.5391C209.98 45.3438 208.789 45.0312 207.578 44.6016C207.591 44.4714 207.598 44.3216 207.598 44.1523C207.611 43.9701 207.617 43.7096 207.617 43.3711C207.617 42.4466 207.565 41.5352 207.461 40.6367C207.357 39.7383 207.201 38.8398 206.992 37.9414L208.75 37.5312C208.971 39.6667 209.642 41.2292 210.762 42.2188C211.882 43.2083 213.542 43.7031 215.742 43.7031C217.669 43.7031 219.238 43.2214 220.449 42.2578C221.66 41.2812 222.266 40.0312 222.266 38.5078C222.266 36.3464 220.378 34.6667 216.602 33.4688C216.068 33.2995 215.651 33.1628 215.352 33.0586C212.734 32.2122 210.859 31.1771 209.727 29.9531C208.594 28.7292 208.027 27.1667 208.027 25.2656C208.027 23.026 208.913 21.1576 210.684 19.6602C212.454 18.1628 214.674 17.4141 217.344 17.4141C218.32 17.4141 219.31 17.4922 220.312 17.6484C221.315 17.8047 222.539 18.0781 223.984 18.4688ZM233.789 44.1328H234.473C235.397 44.1328 236.055 44.0221 236.445 43.8008C236.836 43.5664 237.109 43.1432 237.266 42.5312C237.383 42.1276 237.461 40.6628 237.5 38.1367C237.552 35.6107 237.578 31.6784 237.578 26.3398V20.1094H233.633C231.719 20.1094 230.423 20.3698 229.746 20.8906C229.082 21.3984 228.587 22.4792 228.262 24.1328L226.992 23.8594C227.24 22.7266 227.428 21.6133 227.559 20.5195C227.689 19.4258 227.754 18.3516 227.754 17.2969C228.145 17.5443 228.932 17.7201 230.117 17.8242C231.315 17.9284 233.405 17.9805 236.387 17.9805H241.152C245.111 17.9805 247.656 17.9349 248.789 17.8438C249.935 17.7396 250.736 17.5573 251.191 17.2969C251.191 17.4271 251.185 17.6354 251.172 17.9219C251.159 18.1953 251.152 18.4036 251.152 18.5469C251.152 19.3672 251.185 20.2135 251.25 21.0859C251.328 21.9583 251.439 22.8568 251.582 23.7812L250.352 24.0156C250.195 22.5443 249.792 21.5417 249.141 21.0078C248.503 20.474 247.148 20.1745 245.078 20.1094H241.387C241.374 20.8516 241.361 21.8997 241.348 23.2539C241.322 26.8086 241.309 29.1979 241.309 30.4219C241.309 35.0443 241.335 38.1758 241.387 39.8164C241.452 41.457 241.556 42.4792 241.699 42.8828C241.868 43.3516 242.148 43.6771 242.539 43.8594C242.93 44.0417 243.529 44.1328 244.336 44.1328H245.02V45.5C243.939 45.4479 242.917 45.4089 241.953 45.3828C241.003 45.3568 240.15 45.3438 239.395 45.3438C238.73 45.3438 237.91 45.3568 236.934 45.3828C235.97 45.4089 234.922 45.4479 233.789 45.5V44.1328ZM263.945 21.3008L259.473 32.9805C259.72 32.9805 260.078 32.987 260.547 33C262.018 33.0391 263.021 33.0586 263.555 33.0586C264.206 33.0586 265.384 33.0391 267.09 33C267.467 32.987 267.754 32.9805 267.949 32.9805L263.945 21.3008ZM263.066 17.6289H266.426C268.118 22.7982 269.72 27.5182 271.23 31.7891C272.754 36.0599 273.952 39.2695 274.824 41.418C275.345 42.6549 275.794 43.4167 276.172 43.7031C276.549 43.9896 277.09 44.1328 277.793 44.1328H278.184V45.5C277.168 45.4479 276.237 45.4089 275.391 45.3828C274.557 45.3568 273.854 45.3438 273.281 45.3438C272.552 45.3438 271.751 45.3568 270.879 45.3828C270.007 45.4089 269.082 45.4479 268.105 45.5V44.1328H268.477C269.401 44.1328 270.033 44.0286 270.371 43.8203C270.71 43.599 270.879 43.2018 270.879 42.6289C270.879 42.4206 270.853 42.1927 270.801 41.9453C270.749 41.6849 270.664 41.3789 270.547 41.0273L268.633 35.0508C268.138 35.0508 267.461 35.0443 266.602 35.0312C265.039 34.9922 264.036 34.9727 263.594 34.9727C262.708 34.9727 261.868 34.9792 261.074 34.9922C260.293 34.9922 259.479 35.0052 258.633 35.0312C257.708 37.362 257.077 39.0612 256.738 40.1289C256.4 41.1966 256.23 41.9583 256.23 42.4141C256.23 43.0521 256.4 43.5013 256.738 43.7617C257.077 44.0091 257.682 44.1328 258.555 44.1328H259.082V45.5C258.132 45.4479 257.24 45.4089 256.406 45.3828C255.586 45.3568 254.85 45.3438 254.199 45.3438C253.678 45.3438 253.027 45.3568 252.246 45.3828C251.465 45.4089 250.618 45.4479 249.707 45.5V44.1523C250.632 44.1263 251.361 43.944 251.895 43.6055C252.441 43.2539 252.917 42.6745 253.32 41.8672C254.049 40.3438 255.339 37.2969 257.188 32.7266C259.049 28.1432 261.009 23.1107 263.066 17.6289ZM283.555 44.1328H284.238C285.163 44.1328 285.82 44.0221 286.211 43.8008C286.602 43.5664 286.875 43.1432 287.031 42.5312C287.148 42.1276 287.227 40.6628 287.266 38.1367C287.318 35.6107 287.344 31.6784 287.344 26.3398V20.1094H283.398C281.484 20.1094 280.189 20.3698 279.512 20.8906C278.848 21.3984 278.353 22.4792 278.027 24.1328L276.758 23.8594C277.005 22.7266 277.194 21.6133 277.324 20.5195C277.454 19.4258 277.52 18.3516 277.52 17.2969C277.91 17.5443 278.698 17.7201 279.883 17.8242C281.081 17.9284 283.171 17.9805 286.152 17.9805H290.918C294.876 17.9805 297.422 17.9349 298.555 17.8438C299.701 17.7396 300.501 17.5573 300.957 17.2969C300.957 17.4271 300.951 17.6354 300.938 17.9219C300.924 18.1953 300.918 18.4036 300.918 18.5469C300.918 19.3672 300.951 20.2135 301.016 21.0859C301.094 21.9583 301.204 22.8568 301.348 23.7812L300.117 24.0156C299.961 22.5443 299.557 21.5417 298.906 21.0078C298.268 20.474 296.914 20.1745 294.844 20.1094H291.152C291.139 20.8516 291.126 21.8997 291.113 23.2539C291.087 26.8086 291.074 29.1979 291.074 30.4219C291.074 35.0443 291.1 38.1758 291.152 39.8164C291.217 41.457 291.322 42.4792 291.465 42.8828C291.634 43.3516 291.914 43.6771 292.305 43.8594C292.695 44.0417 293.294 44.1328 294.102 44.1328H294.785V45.5C293.704 45.4479 292.682 45.4089 291.719 45.3828C290.768 45.3568 289.915 45.3438 289.16 45.3438C288.496 45.3438 287.676 45.3568 286.699 45.3828C285.736 45.4089 284.688 45.4479 283.555 45.5V44.1328ZM304.18 17.6289C306.458 17.707 308.496 17.7656 310.293 17.8047C312.09 17.8438 313.639 17.8633 314.941 17.8633C316.387 17.8633 317.845 17.8438 319.316 17.8047C320.801 17.7656 322.305 17.707 323.828 17.6289C323.841 18.6055 323.88 19.6081 323.945 20.6367C324.01 21.6523 324.089 22.6745 324.18 23.7031L322.871 23.8203C322.767 22.2578 322.285 21.2031 321.426 20.6562C320.566 20.0964 318.711 19.8164 315.859 19.8164C315.13 19.8164 313.796 19.8359 311.855 19.875C311.465 19.888 311.178 19.8945 310.996 19.8945C310.97 21.457 310.931 23.3711 310.879 25.6367C310.827 27.9023 310.794 29.3737 310.781 30.0508H311.387C312.155 30.0508 313.112 30.0638 314.258 30.0898C315.417 30.1029 316.191 30.1094 316.582 30.1094C318.47 30.1094 319.714 29.9336 320.312 29.582C320.924 29.2305 321.257 28.5794 321.309 27.6289L322.539 27.7461C322.448 28.5534 322.376 29.3021 322.324 29.9922C322.285 30.6823 322.266 31.3203 322.266 31.9062C322.266 32.2448 322.298 32.974 322.363 34.0938C322.389 34.4974 322.409 34.8034 322.422 35.0117L321.152 35.0508V34.8945C321.152 33.7878 320.827 33.0391 320.176 32.6484C319.538 32.2578 318.034 32.0625 315.664 32.0625H312.188H310.781C310.781 32.7005 310.775 33.5859 310.762 34.7188C310.749 35.8385 310.742 36.6458 310.742 37.1406C310.742 38 310.749 38.8984 310.762 39.8359C310.775 40.7604 310.801 41.8477 310.84 43.0977C311.491 43.1758 312.227 43.2344 313.047 43.2734C313.88 43.3125 314.792 43.332 315.781 43.332C319.049 43.332 321.198 43.0195 322.227 42.3945C323.268 41.7565 324.095 40.5391 324.707 38.7422L326.113 39.2109C325.723 40.2917 325.378 41.3529 325.078 42.3945C324.779 43.4362 324.518 44.4714 324.297 45.5C322.253 45.4219 320.352 45.3633 318.594 45.3242C316.836 45.2852 315.247 45.2656 313.828 45.2656C311.888 45.2656 308.763 45.3372 304.453 45.4805L303.75 45.5V44.2305C303.841 44.2435 303.926 44.2565 304.004 44.2695C304.095 44.2695 304.225 44.2695 304.395 44.2695C306.126 44.2695 307.005 41.8346 307.031 36.9648C307.044 35.7409 307.057 34.7839 307.07 34.0938L307.148 28.7617C307.161 27.6159 307.168 26.5026 307.168 25.4219C307.181 24.3411 307.188 23.1693 307.188 21.9062C307.188 20.7865 306.979 20.0117 306.562 19.582C306.146 19.1523 305.404 18.9375 304.336 18.9375H304.18V17.6289Z" fill="#003D69"/>
<g clip-path="url(#clip0_1_1785)">
<rect y="0.5" width="71" height="71" fill="#BB7944"/>
<path d="M0 16.2131C28.1665 16.2131 51.2131 39.0466 51.2131 67.2131V71.5H0V16.2131Z" fill="white"/>
<path d="M0 34.2541H5.33606C21.3523 34.2541 34.3361 47.2378 34.3361 63.2541V71.5H0V34.2541Z" fill="#003D69"/>
</g>
<defs>
<clipPath id="clip0_1_1785">
<rect y="0.5" width="60" height="59" rx="20" fill="white"/>
</clipPath>
</defs>
</svg>
