<svg width="271" height="55" viewBox="0 0 271 55" fill="none" xmlns="http://www.w3.org/2000/svg">
<path d="M74.75 26.9844C75.25 27.0365 75.7188 27.0729 76.1562 27.0938C76.6042 27.1146 77 27.125 77.3438 27.125C77.6354 27.125 77.9688 27.1198 78.3438 27.1094C78.7188 27.0885 79.125 27.0573 79.5625 27.0156C80.5625 26.4115 81.2969 25.7135 81.7656 24.9219C82.2344 24.1198 82.4688 23.1667 82.4688 22.0625C82.4688 20.6146 82 19.4531 81.0625 18.5781C80.125 17.7031 78.8646 17.2656 77.2812 17.2656C76.8542 17.2656 76.4375 17.2865 76.0312 17.3281C75.625 17.3594 75.224 17.4115 74.8281 17.4844C74.7969 18.776 74.776 20.1042 74.7656 21.4688C74.7552 22.8333 74.75 24.6719 74.75 26.9844ZM69.1875 36.9844C69.2604 36.9948 69.3281 37.0052 69.3906 37.0156C69.4635 37.0156 69.5677 37.0156 69.7031 37.0156C71.0885 37.0156 71.7917 35.0677 71.8125 31.1719C71.8229 30.1927 71.8333 29.4271 71.8438 28.875L71.9062 24.6094C71.9167 23.6927 71.9219 22.8021 71.9219 21.9375C71.9323 21.0729 71.9375 20.1354 71.9375 19.125C71.9375 18.2292 71.7708 17.6094 71.4375 17.2656C71.1042 16.9219 70.5104 16.75 69.6562 16.75H69.5312V15.6562C70.2292 15.7083 70.9167 15.7448 71.5938 15.7656C72.2812 15.7865 72.9479 15.7969 73.5938 15.7969C74.2917 15.7969 75.1562 15.776 76.1875 15.7344C77.2292 15.6823 77.9219 15.6562 78.2656 15.6562C80.401 15.6562 82.151 16.2188 83.5156 17.3438C84.8802 18.4688 85.5625 19.8802 85.5625 21.5781C85.5625 22.8385 85.2188 23.9635 84.5312 24.9531C83.8542 25.9323 82.8333 26.7708 81.4688 27.4688L84.3906 31.8906C84.4948 32.0573 84.651 32.2969 84.8594 32.6094C86.8802 35.6927 88.5365 37.2344 89.8281 37.2344H89.9844V38.125C89.8385 38.1354 89.6198 38.1562 89.3281 38.1875C88.651 38.25 88.1562 38.2812 87.8438 38.2812C86.7396 38.2812 85.8646 38.1354 85.2188 37.8438C84.5833 37.5417 83.9531 36.9635 83.3281 36.1094C83.224 35.974 82.6458 35.0469 81.5938 33.3281C80.5521 31.6094 79.5 29.9896 78.4375 28.4688C78.0417 28.5104 77.6198 28.5417 77.1719 28.5625C76.724 28.5833 76.2292 28.5938 75.6875 28.5938H74.75V33.3906C74.75 34.9531 74.9115 35.9427 75.2344 36.3594C75.5573 36.7656 76.1979 36.9688 77.1562 36.9688C77.1875 36.9688 77.2292 36.9635 77.2812 36.9531C77.3333 36.9427 77.375 36.9375 77.4062 36.9375C77.4479 36.9375 77.4792 36.9427 77.5 36.9531C77.5312 36.9635 77.5521 36.9688 77.5625 36.9688V38C76.8229 37.9583 76.0885 37.9271 75.3594 37.9062C74.6302 37.8854 73.9062 37.875 73.1875 37.875C72.8021 37.875 72.2604 37.8854 71.5625 37.9062C70.8646 37.9271 70.0729 37.9583 69.1875 38V36.9844ZM92.0312 15.7031C93.8542 15.7656 95.4844 15.8125 96.9219 15.8438C98.3594 15.875 99.599 15.8906 100.641 15.8906C101.797 15.8906 102.964 15.875 104.141 15.8438C105.328 15.8125 106.531 15.7656 107.75 15.7031C107.76 16.4844 107.792 17.2865 107.844 18.1094C107.896 18.9219 107.958 19.7396 108.031 20.5625L106.984 20.6562C106.901 19.4062 106.516 18.5625 105.828 18.125C105.141 17.6771 103.656 17.4531 101.375 17.4531C100.792 17.4531 99.724 17.4688 98.1719 17.5C97.8594 17.5104 97.6302 17.5156 97.4844 17.5156C97.4635 18.7656 97.4323 20.2969 97.3906 22.1094C97.349 23.9219 97.3229 25.099 97.3125 25.6406H97.7969C98.4115 25.6406 99.1771 25.651 100.094 25.6719C101.021 25.6823 101.641 25.6875 101.953 25.6875C103.464 25.6875 104.458 25.5469 104.938 25.2656C105.427 24.9844 105.693 24.4635 105.734 23.7031L106.719 23.7969C106.646 24.4427 106.589 25.0417 106.547 25.5938C106.516 26.1458 106.5 26.6562 106.5 27.125C106.5 27.3958 106.526 27.9792 106.578 28.875C106.599 29.1979 106.615 29.4427 106.625 29.6094L105.609 29.6406V29.5156C105.609 28.6302 105.349 28.0312 104.828 27.7188C104.318 27.4062 103.115 27.25 101.219 27.25H98.4375H97.3125C97.3125 27.7604 97.3073 28.4688 97.2969 29.375C97.2865 30.2708 97.2812 30.9167 97.2812 31.3125C97.2812 32 97.2865 32.7188 97.2969 33.4688C97.3073 34.2083 97.3281 35.0781 97.3594 36.0781C97.8802 36.1406 98.4688 36.1875 99.125 36.2188C99.7917 36.25 100.521 36.2656 101.312 36.2656C103.927 36.2656 105.646 36.0156 106.469 35.5156C107.302 35.0052 107.964 34.0312 108.453 32.5938L109.578 32.9688C109.266 33.8333 108.99 34.6823 108.75 35.5156C108.51 36.349 108.302 37.1771 108.125 38C106.49 37.9375 104.969 37.8906 103.562 37.8594C102.156 37.8281 100.885 37.8125 99.75 37.8125C98.1979 37.8125 95.6979 37.8698 92.25 37.9844L91.6875 38V36.9844C91.7604 36.9948 91.8281 37.0052 91.8906 37.0156C91.9635 37.0156 92.0677 37.0156 92.2031 37.0156C93.5885 37.0156 94.2917 35.0677 94.3125 31.1719C94.3229 30.1927 94.3333 29.4271 94.3438 28.875L94.4062 24.6094C94.4167 23.6927 94.4219 22.8021 94.4219 21.9375C94.4323 21.0729 94.4375 20.1354 94.4375 19.125C94.4375 18.2292 94.2708 17.6094 93.9375 17.2656C93.6042 16.9219 93.0104 16.75 92.1562 16.75H92.0312V15.7031ZM121.688 18.6406L118.109 27.9844C118.307 27.9844 118.594 27.9896 118.969 28C120.146 28.0312 120.948 28.0469 121.375 28.0469C121.896 28.0469 122.839 28.0312 124.203 28C124.505 27.9896 124.734 27.9844 124.891 27.9844L121.688 18.6406ZM120.984 15.7031H123.672C125.026 19.8385 126.307 23.6146 127.516 27.0312C128.734 30.4479 129.693 33.0156 130.391 34.7344C130.807 35.724 131.167 36.3333 131.469 36.5625C131.771 36.7917 132.203 36.9062 132.766 36.9062H133.078V38C132.266 37.9583 131.521 37.9271 130.844 37.9062C130.177 37.8854 129.615 37.875 129.156 37.875C128.573 37.875 127.932 37.8854 127.234 37.9062C126.536 37.9271 125.797 37.9583 125.016 38V36.9062H125.312C126.052 36.9062 126.557 36.8229 126.828 36.6562C127.099 36.4792 127.234 36.1615 127.234 35.7031C127.234 35.5365 127.214 35.3542 127.172 35.1562C127.13 34.9479 127.062 34.7031 126.969 34.4219L125.438 29.6406C125.042 29.6406 124.5 29.6354 123.812 29.625C122.562 29.5938 121.76 29.5781 121.406 29.5781C120.698 29.5781 120.026 29.5833 119.391 29.5938C118.766 29.5938 118.115 29.6042 117.438 29.625C116.698 31.4896 116.193 32.849 115.922 33.7031C115.651 34.5573 115.516 35.1667 115.516 35.5312C115.516 36.0417 115.651 36.401 115.922 36.6094C116.193 36.8073 116.677 36.9062 117.375 36.9062H117.797V38C117.036 37.9583 116.323 37.9271 115.656 37.9062C115 37.8854 114.411 37.875 113.891 37.875C113.474 37.875 112.953 37.8854 112.328 37.9062C111.703 37.9271 111.026 37.9583 110.297 38V36.9219C111.036 36.901 111.62 36.7552 112.047 36.4844C112.484 36.2031 112.865 35.7396 113.188 35.0938C113.771 33.875 114.802 31.4375 116.281 27.7812C117.771 24.1146 119.339 20.0885 120.984 15.7031ZM135.438 15.6562C136.552 15.7188 137.396 15.7656 137.969 15.7969C138.552 15.8177 139.021 15.8281 139.375 15.8281C140.052 15.8281 140.714 15.8177 141.359 15.7969C142.016 15.7656 142.667 15.724 143.312 15.6719V16.75H142.828C142.005 16.75 141.448 17.0365 141.156 17.6094C140.865 18.1719 140.719 19.474 140.719 21.5156V24.625L140.766 36.0781C141.349 36.1094 141.901 36.1354 142.422 36.1562C142.953 36.1667 143.453 36.1719 143.922 36.1719C146.714 36.1719 148.51 35.9167 149.312 35.4062C150.125 34.8854 150.771 33.8854 151.25 32.4062L152.375 32.75C152.052 33.6458 151.766 34.526 151.516 35.3906C151.266 36.2552 151.047 37.125 150.859 38C149.13 37.9479 147.536 37.9115 146.078 37.8906C144.63 37.8594 143.271 37.8438 142 37.8438C141.104 37.8438 140.104 37.8594 139 37.8906C137.896 37.9115 136.594 37.9479 135.094 38V36.9844C135.167 36.9948 135.234 37.0052 135.297 37.0156C135.37 37.0156 135.474 37.0156 135.609 37.0156C137.016 37.0052 137.724 35 137.734 31C137.734 30.0938 137.74 29.3854 137.75 28.875L137.781 24.625C137.781 24.1667 137.786 23.5781 137.797 22.8594C137.807 22.1406 137.812 21.6406 137.812 21.3594C137.812 19.4427 137.656 18.1979 137.344 17.625C137.042 17.0417 136.448 16.75 135.562 16.75H135.438V15.6562ZM153.75 15.7031C155.573 15.7656 157.203 15.8125 158.641 15.8438C160.078 15.875 161.318 15.8906 162.359 15.8906C163.516 15.8906 164.682 15.875 165.859 15.8438C167.047 15.8125 168.25 15.7656 169.469 15.7031C169.479 16.4844 169.51 17.2865 169.562 18.1094C169.615 18.9219 169.677 19.7396 169.75 20.5625L168.703 20.6562C168.62 19.4062 168.234 18.5625 167.547 18.125C166.859 17.6771 165.375 17.4531 163.094 17.4531C162.51 17.4531 161.443 17.4688 159.891 17.5C159.578 17.5104 159.349 17.5156 159.203 17.5156C159.182 18.7656 159.151 20.2969 159.109 22.1094C159.068 23.9219 159.042 25.099 159.031 25.6406H159.516C160.13 25.6406 160.896 25.651 161.812 25.6719C162.74 25.6823 163.359 25.6875 163.672 25.6875C165.182 25.6875 166.177 25.5469 166.656 25.2656C167.146 24.9844 167.411 24.4635 167.453 23.7031L168.438 23.7969C168.365 24.4427 168.307 25.0417 168.266 25.5938C168.234 26.1458 168.219 26.6562 168.219 27.125C168.219 27.3958 168.245 27.9792 168.297 28.875C168.318 29.1979 168.333 29.4427 168.344 29.6094L167.328 29.6406V29.5156C167.328 28.6302 167.068 28.0312 166.547 27.7188C166.036 27.4062 164.833 27.25 162.938 27.25H160.156H159.031C159.031 27.7604 159.026 28.4688 159.016 29.375C159.005 30.2708 159 30.9167 159 31.3125C159 32 159.005 32.7188 159.016 33.4688C159.026 34.2083 159.047 35.0781 159.078 36.0781C159.599 36.1406 160.188 36.1875 160.844 36.2188C161.51 36.25 162.24 36.2656 163.031 36.2656C165.646 36.2656 167.365 36.0156 168.188 35.5156C169.021 35.0052 169.682 34.0312 170.172 32.5938L171.297 32.9688C170.984 33.8333 170.708 34.6823 170.469 35.5156C170.229 36.349 170.021 37.1771 169.844 38C168.208 37.9375 166.688 37.8906 165.281 37.8594C163.875 37.8281 162.604 37.8125 161.469 37.8125C159.917 37.8125 157.417 37.8698 153.969 37.9844L153.406 38V36.9844C153.479 36.9948 153.547 37.0052 153.609 37.0156C153.682 37.0156 153.786 37.0156 153.922 37.0156C155.307 37.0156 156.01 35.0677 156.031 31.1719C156.042 30.1927 156.052 29.4271 156.062 28.875L156.125 24.6094C156.135 23.6927 156.141 22.8021 156.141 21.9375C156.151 21.0729 156.156 20.1354 156.156 19.125C156.156 18.2292 155.99 17.6094 155.656 17.2656C155.323 16.9219 154.729 16.75 153.875 16.75H153.75V15.7031ZM187.188 16.375C187.188 17.1458 187.229 17.9062 187.312 18.6562C187.406 19.4062 187.547 20.1458 187.734 20.875L186.516 21.1094C186.339 19.8177 185.839 18.8594 185.016 18.2344C184.203 17.6094 183.052 17.2969 181.562 17.2969C180.188 17.2969 179.068 17.6302 178.203 18.2969C177.349 18.9635 176.922 19.8229 176.922 20.875C176.922 22.6042 178.755 24.0833 182.422 25.3125C182.911 25.4688 183.286 25.5938 183.547 25.6875C185.224 26.2708 186.458 27.0208 187.25 27.9375C188.042 28.8438 188.438 29.9688 188.438 31.3125C188.438 33.3854 187.651 35.0677 186.078 36.3594C184.505 37.6406 182.422 38.2812 179.828 38.2812C178.839 38.2812 177.87 38.1979 176.922 38.0312C175.984 37.875 175.031 37.625 174.062 37.2812C174.073 37.1771 174.078 37.0573 174.078 36.9219C174.089 36.776 174.094 36.5677 174.094 36.2969C174.094 35.5573 174.052 34.8281 173.969 34.1094C173.885 33.3906 173.76 32.6719 173.594 31.9531L175 31.625C175.177 33.3333 175.714 34.5833 176.609 35.375C177.505 36.1667 178.833 36.5625 180.594 36.5625C182.135 36.5625 183.391 36.1771 184.359 35.4062C185.328 34.625 185.812 33.625 185.812 32.4062C185.812 30.6771 184.302 29.3333 181.281 28.375C180.854 28.2396 180.521 28.1302 180.281 28.0469C178.188 27.3698 176.688 26.5417 175.781 25.5625C174.875 24.5833 174.422 23.3333 174.422 21.8125C174.422 20.0208 175.13 18.526 176.547 17.3281C177.964 16.1302 179.74 15.5312 181.875 15.5312C182.656 15.5312 183.448 15.5938 184.25 15.7188C185.052 15.8438 186.031 16.0625 187.188 16.375ZM195.031 36.9062H195.578C196.318 36.9062 196.844 36.8177 197.156 36.6406C197.469 36.4531 197.688 36.1146 197.812 35.625C197.906 35.3021 197.969 34.1302 198 32.1094C198.042 30.0885 198.062 26.9427 198.062 22.6719V17.6875H194.906C193.375 17.6875 192.339 17.8958 191.797 18.3125C191.266 18.7188 190.87 19.5833 190.609 20.9062L189.594 20.6875C189.792 19.7812 189.943 18.8906 190.047 18.0156C190.151 17.1406 190.203 16.2812 190.203 15.4375C190.516 15.6354 191.146 15.776 192.094 15.8594C193.052 15.9427 194.724 15.9844 197.109 15.9844H200.922C204.089 15.9844 206.125 15.9479 207.031 15.875C207.948 15.7917 208.589 15.6458 208.953 15.4375C208.953 15.5417 208.948 15.7083 208.938 15.9375C208.927 16.1562 208.922 16.3229 208.922 16.4375C208.922 17.0938 208.948 17.7708 209 18.4688C209.062 19.1667 209.151 19.8854 209.266 20.625L208.281 20.8125C208.156 19.6354 207.833 18.8333 207.312 18.4062C206.802 17.9792 205.719 17.7396 204.062 17.6875H201.109C201.099 18.2812 201.089 19.1198 201.078 20.2031C201.057 23.0469 201.047 24.9583 201.047 25.9375C201.047 29.6354 201.068 32.1406 201.109 33.4531C201.161 34.7656 201.245 35.5833 201.359 35.9062C201.495 36.2812 201.719 36.5417 202.031 36.6875C202.344 36.8333 202.823 36.9062 203.469 36.9062H204.016V38C203.151 37.9583 202.333 37.9271 201.562 37.9062C200.802 37.8854 200.12 37.875 199.516 37.875C198.984 37.875 198.328 37.8854 197.547 37.9062C196.776 37.9271 195.938 37.9583 195.031 38V36.9062ZM219.156 18.6406L215.578 27.9844C215.776 27.9844 216.062 27.9896 216.438 28C217.615 28.0312 218.417 28.0469 218.844 28.0469C219.365 28.0469 220.307 28.0312 221.672 28C221.974 27.9896 222.203 27.9844 222.359 27.9844L219.156 18.6406ZM218.453 15.7031H221.141C222.495 19.8385 223.776 23.6146 224.984 27.0312C226.203 30.4479 227.161 33.0156 227.859 34.7344C228.276 35.724 228.635 36.3333 228.938 36.5625C229.24 36.7917 229.672 36.9062 230.234 36.9062H230.547V38C229.734 37.9583 228.99 37.9271 228.312 37.9062C227.646 37.8854 227.083 37.875 226.625 37.875C226.042 37.875 225.401 37.8854 224.703 37.9062C224.005 37.9271 223.266 37.9583 222.484 38V36.9062H222.781C223.521 36.9062 224.026 36.8229 224.297 36.6562C224.568 36.4792 224.703 36.1615 224.703 35.7031C224.703 35.5365 224.682 35.3542 224.641 35.1562C224.599 34.9479 224.531 34.7031 224.438 34.4219L222.906 29.6406C222.51 29.6406 221.969 29.6354 221.281 29.625C220.031 29.5938 219.229 29.5781 218.875 29.5781C218.167 29.5781 217.495 29.5833 216.859 29.5938C216.234 29.5938 215.583 29.6042 214.906 29.625C214.167 31.4896 213.661 32.849 213.391 33.7031C213.12 34.5573 212.984 35.1667 212.984 35.5312C212.984 36.0417 213.12 36.401 213.391 36.6094C213.661 36.8073 214.146 36.9062 214.844 36.9062H215.266V38C214.505 37.9583 213.792 37.9271 213.125 37.9062C212.469 37.8854 211.88 37.875 211.359 37.875C210.943 37.875 210.422 37.8854 209.797 37.9062C209.172 37.9271 208.495 37.9583 207.766 38V36.9219C208.505 36.901 209.089 36.7552 209.516 36.4844C209.953 36.2031 210.333 35.7396 210.656 35.0938C211.24 33.875 212.271 31.4375 213.75 27.7812C215.24 24.1146 216.807 20.0885 218.453 15.7031ZM234.844 36.9062H235.391C236.13 36.9062 236.656 36.8177 236.969 36.6406C237.281 36.4531 237.5 36.1146 237.625 35.625C237.719 35.3021 237.781 34.1302 237.812 32.1094C237.854 30.0885 237.875 26.9427 237.875 22.6719V17.6875H234.719C233.188 17.6875 232.151 17.8958 231.609 18.3125C231.078 18.7188 230.682 19.5833 230.422 20.9062L229.406 20.6875C229.604 19.7812 229.755 18.8906 229.859 18.0156C229.964 17.1406 230.016 16.2812 230.016 15.4375C230.328 15.6354 230.958 15.776 231.906 15.8594C232.865 15.9427 234.536 15.9844 236.922 15.9844H240.734C243.901 15.9844 245.938 15.9479 246.844 15.875C247.76 15.7917 248.401 15.6458 248.766 15.4375C248.766 15.5417 248.76 15.7083 248.75 15.9375C248.74 16.1562 248.734 16.3229 248.734 16.4375C248.734 17.0938 248.76 17.7708 248.812 18.4688C248.875 19.1667 248.964 19.8854 249.078 20.625L248.094 20.8125C247.969 19.6354 247.646 18.8333 247.125 18.4062C246.615 17.9792 245.531 17.7396 243.875 17.6875H240.922C240.911 18.2812 240.901 19.1198 240.891 20.2031C240.87 23.0469 240.859 24.9583 240.859 25.9375C240.859 29.6354 240.88 32.1406 240.922 33.4531C240.974 34.7656 241.057 35.5833 241.172 35.9062C241.307 36.2812 241.531 36.5417 241.844 36.6875C242.156 36.8333 242.635 36.9062 243.281 36.9062H243.828V38C242.964 37.9583 242.146 37.9271 241.375 37.9062C240.615 37.8854 239.932 37.875 239.328 37.875C238.797 37.875 238.141 37.8854 237.359 37.9062C236.589 37.9271 235.75 37.9583 234.844 38V36.9062ZM251.344 15.7031C253.167 15.7656 254.797 15.8125 256.234 15.8438C257.672 15.875 258.911 15.8906 259.953 15.8906C261.109 15.8906 262.276 15.875 263.453 15.8438C264.641 15.8125 265.844 15.7656 267.062 15.7031C267.073 16.4844 267.104 17.2865 267.156 18.1094C267.208 18.9219 267.271 19.7396 267.344 20.5625L266.297 20.6562C266.214 19.4062 265.828 18.5625 265.141 18.125C264.453 17.6771 262.969 17.4531 260.688 17.4531C260.104 17.4531 259.036 17.4688 257.484 17.5C257.172 17.5104 256.943 17.5156 256.797 17.5156C256.776 18.7656 256.745 20.2969 256.703 22.1094C256.661 23.9219 256.635 25.099 256.625 25.6406H257.109C257.724 25.6406 258.49 25.651 259.406 25.6719C260.333 25.6823 260.953 25.6875 261.266 25.6875C262.776 25.6875 263.771 25.5469 264.25 25.2656C264.74 24.9844 265.005 24.4635 265.047 23.7031L266.031 23.7969C265.958 24.4427 265.901 25.0417 265.859 25.5938C265.828 26.1458 265.812 26.6562 265.812 27.125C265.812 27.3958 265.839 27.9792 265.891 28.875C265.911 29.1979 265.927 29.4427 265.938 29.6094L264.922 29.6406V29.5156C264.922 28.6302 264.661 28.0312 264.141 27.7188C263.63 27.4062 262.427 27.25 260.531 27.25H257.75H256.625C256.625 27.7604 256.62 28.4688 256.609 29.375C256.599 30.2708 256.594 30.9167 256.594 31.3125C256.594 32 256.599 32.7188 256.609 33.4688C256.62 34.2083 256.641 35.0781 256.672 36.0781C257.193 36.1406 257.781 36.1875 258.438 36.2188C259.104 36.25 259.833 36.2656 260.625 36.2656C263.24 36.2656 264.958 36.0156 265.781 35.5156C266.615 35.0052 267.276 34.0312 267.766 32.5938L268.891 32.9688C268.578 33.8333 268.302 34.6823 268.062 35.5156C267.823 36.349 267.615 37.1771 267.438 38C265.802 37.9375 264.281 37.8906 262.875 37.8594C261.469 37.8281 260.198 37.8125 259.062 37.8125C257.51 37.8125 255.01 37.8698 251.562 37.9844L251 38V36.9844C251.073 36.9948 251.141 37.0052 251.203 37.0156C251.276 37.0156 251.38 37.0156 251.516 37.0156C252.901 37.0156 253.604 35.0677 253.625 31.1719C253.635 30.1927 253.646 29.4271 253.656 28.875L253.719 24.6094C253.729 23.6927 253.734 22.8021 253.734 21.9375C253.745 21.0729 253.75 20.1354 253.75 19.125C253.75 18.2292 253.583 17.6094 253.25 17.2656C252.917 16.9219 252.323 16.75 251.469 16.75H251.344V15.7031Z" fill="white"/>
<g clip-path="url(#clip0_1_425)">
<rect width="59" height="59" fill="white"/>
<path d="M0 13.0571C23.5038 13.0571 42.5574 32.1107 42.5574 55.6145V58.9998H0V13.0571Z" fill="#BB7944"/>
<path d="M0 28.0488C15.7582 28.0488 28.5328 40.8234 28.5328 56.5816V58.9996H0V28.0488Z" fill="white"/>
</g>
<defs>
<clipPath id="clip0_1_425">
<rect width="56" height="55" rx="15" fill="white"/>
</clipPath>
</defs>
</svg>
