<svg width="13" height="13" viewBox="0 0 13 13" fill="none" xmlns="http://www.w3.org/2000/svg">
<path d="M2.73438 13H0.191406V4.82422H2.73438V13ZM1.44922 3.73047C0.65625 3.73047 0 3.04688 0 2.22656C0 1.43359 0.65625 0.777344 1.44922 0.777344C2.26953 0.777344 2.92578 1.43359 2.92578 2.22656C2.92578 3.04688 2.26953 3.73047 1.44922 3.73047ZM12.2227 13H9.70703V9.03516C9.70703 8.07812 9.67969 6.875 8.36719 6.875C7.05469 6.875 6.86328 7.88672 6.86328 8.95312V13H4.32031V4.82422H6.75391V5.94531H6.78125C7.13672 5.31641 7.95703 4.63281 9.1875 4.63281C11.7578 4.63281 12.25 6.32812 12.25 8.51562V13H12.2227Z" fill="white"/>
</svg>
