<svg width="18" height="11" viewBox="0 0 18 11" fill="none" xmlns="http://www.w3.org/2000/svg">
<path d="M10.5547 5.01172C10.582 5.28516 10.6367 5.53125 10.6367 5.88672C10.6367 8.89453 8.61328 11 5.57812 11C2.67969 11 0.328125 8.67578 0.328125 5.75C0.328125 2.85156 2.67969 0.5 5.57812 0.5C7 0.5 8.17578 1.01953 9.10547 1.89453L7.68359 3.26172C7.30078 2.87891 6.61719 2.44141 5.57812 2.44141C3.80078 2.44141 2.32422 3.91797 2.32422 5.75C2.32422 7.60938 3.80078 9.08594 5.57812 9.08594C7.65625 9.08594 8.44922 7.58203 8.55859 6.81641H5.57812V5.01172H10.5547ZM15.6133 5.17578H17.1445V6.70703H15.6133V8.23828H14.082V6.70703H12.5508V5.17578H14.082V3.67188H15.6133V5.17578Z" fill="white"/>
</svg>
