<svg width="30" height="30" viewBox="0 0 30 30" fill="none" xmlns="http://www.w3.org/2000/svg">
<path d="M15 29.5C23.0081 29.5 29.5 23.0081 29.5 15C29.5 6.99187 23.0081 0.5 15 0.5C6.99187 0.5 0.5 6.99187 0.5 15C0.5 23.0081 6.99187 29.5 15 29.5Z" fill="#0A2114"/>
<path d="M15 26.4414C21.3189 26.4414 26.4414 21.3189 26.4414 15C26.4414 8.68109 21.3189 3.55859 15 3.55859C8.68109 3.55859 3.55859 8.68109 3.55859 15C3.55859 21.3189 8.68109 26.4414 15 26.4414Z" fill="#0A2114" stroke="#50AD7A" stroke-width="2.03906"/>
<path d="M7.75 11.375L9.78906 21.1172H20.2109L22.25 11.375L17.4922 15L15 8.65625L12.5078 15L7.75 11.375Z" fill="#50AD7A"/>
</svg>
